<svg xmlns="http://www.w3.org/2000/svg" version="1.1" xmlns:xlink="http://www.w3.org/1999/xlink" xmlns:svgjs="http://svgjs.dev/svgjs" width="2000" height="1652" viewBox="0 0 2000 1652"><g transform="matrix(1,0,0,1,-0.011225551784491472,0.6688259109311048)"><svg viewBox="0 0 299 247" data-background-color="#ffffff" preserveAspectRatio="xMidYMid meet" height="1652" width="2000" xmlns="http://www.w3.org/2000/svg" xmlns:xlink="http://www.w3.org/1999/xlink"><g id="tight-bounds" transform="matrix(1,0,0,1,0.00167821999178841,-0.09999999999999432)"><svg viewBox="0 0 298.9966435600164 247.2" height="247.2" width="298.9966435600164"><g><svg viewBox="0 0 395.52 327.0021456959081" height="247.2" width="298.9966435600164"><g transform="matrix(1,0,0,1,0,205.93490024426433)"><svg viewBox="0 0 395.52 121.0672454516438" height="121.0672454516438" width="395.52"><g id="textblocktransform"><svg viewBox="0 0 395.52 121.0672454516438" height="121.0672454516438" width="395.52" id="textblock"><g><svg viewBox="0 0 395.52 121.0672454516438" height="121.0672454516438" width="395.52"><g transform="matrix(1,0,0,1,0,0)"><svg width="395.52" viewBox="3.8 -37.35 155.94 47.95" height="121.0672454516438" data-palette-color="#ff8f9c"><g class="wordmark-text-0" data-fill-palette-color="primary" id="text-0"><path d="M3.8-34.45L8.35-34.45 8.35 0 3.8 0 3.8-34.45ZM12.7-34.45L33.25-34.45 32.75-30.65 25.1-30.65 25.1 0 20.55 0 20.55-30.65 12.7-30.65 12.7-34.45ZM47.84-35Q50.3-35 52.15-34.18 54-33.35 55.84-31.65L55.84-31.65 53.5-28.9Q52.09-30.15 50.8-30.73 49.5-31.3 47.95-31.3L47.95-31.3Q40.59-31.3 40.59-17.25L40.59-17.25Q40.59-3.25 48.09-3.25L48.09-3.25Q49.8-3.25 51.07-3.93 52.34-4.6 53.7-5.85L53.7-5.85 56.15-3.2Q54.65-1.55 52.59-0.48 50.55 0.6 48 0.6L48 0.6Q42.45 0.6 39.12-3.9 35.8-8.4 35.8-17.25L35.8-17.25Q35.8-23.2 37.37-27.18 38.95-31.15 41.67-33.08 44.4-35 47.84-35L47.84-35Z" fill="#ff8f9c" data-fill-palette-color="primary"></path><path d="M78.05-35Q80.8-35 82.92-34.02 85.05-33.05 86.85-31.05L86.85-31.05 84.45-28.45Q82.9-29.95 81.4-30.63 79.9-31.3 78.1-31.3L78.1-31.3Q75.95-31.3 74.62-29.93 73.3-28.55 73.3-26.3L73.3-26.3Q73.3-24.1 74.57-22.7 75.85-21.3 79.4-19.95L79.4-19.95Q83.5-18.4 85.6-16.1 87.7-13.8 87.7-9.55L87.7-9.55Q87.7-6.8 86.42-4.48 85.15-2.15 82.8-0.78 80.45 0.6 77.35 0.6L77.35 0.6Q74.25 0.6 71.85-0.55 69.45-1.7 67.5-3.85L67.5-3.85 69.95-6.45Q71.7-4.85 73.42-4 75.15-3.15 77.25-3.15L77.25-3.15Q79.85-3.15 81.4-4.85 82.95-6.55 82.95-9.45L82.95-9.45Q82.95-11.95 81.7-13.45 80.45-14.95 77.05-16.2L77.05-16.2Q72.7-17.85 70.67-20.2 68.65-22.55 68.65-26.1L68.65-26.1Q68.65-28.55 69.85-30.6 71.05-32.65 73.2-33.83 75.35-35 78.05-35L78.05-35ZM103.65-26.9Q106.5-26.9 108.2-24.85 109.9-22.8 109.9-19.35L109.9-19.35 109.9 0 105.5 0 105.5-18.75Q105.5-21.3 104.77-22.38 104.05-23.45 102.6-23.45L102.6-23.45Q99.75-23.45 97.3-18.55L97.3-18.55 97.3 0 92.9 0 92.9-36.9 97.3-37.35 97.3-22.65Q98.55-24.75 100.02-25.83 101.5-26.9 103.65-26.9L103.65-26.9ZM125.49-26.9Q130.19-26.9 132.77-23.43 135.34-19.95 135.34-13.2L135.34-13.2Q135.34-6.85 132.72-3.13 130.09 0.6 125.44 0.6L125.44 0.6Q120.79 0.6 118.19-3.05 115.59-6.7 115.59-13.15L115.59-13.15Q115.59-19.8 118.19-23.35 120.79-26.9 125.49-26.9L125.49-26.9ZM125.49-23.35Q122.84-23.35 121.54-20.98 120.24-18.6 120.24-13.15L120.24-13.15Q120.24-7.75 121.54-5.35 122.84-2.95 125.44-2.95L125.44-2.95Q128.09-2.95 129.39-5.35 130.69-7.75 130.69-13.2L130.69-13.2Q130.69-18.6 129.39-20.98 128.09-23.35 125.49-23.35L125.49-23.35ZM151.89-26.9Q155.74-26.9 157.74-23.38 159.74-19.85 159.74-13.2L159.74-13.2Q159.74-6.75 157.54-3.08 155.34 0.6 151.24 0.6L151.24 0.6Q147.84 0.6 145.64-2.3L145.64-2.3 145.64 10.05 141.24 10.6 141.24-26.35 145.09-26.35 145.34-22.85Q147.84-26.9 151.89-26.9L151.89-26.9ZM150.29-3Q152.64-3 153.87-5.43 155.09-7.85 155.09-13.2L155.09-13.2Q155.09-18.65 154.04-21.03 152.99-23.4 150.74-23.4L150.74-23.4Q147.89-23.4 145.64-19.55L145.64-19.55 145.64-6.05Q147.54-3 150.29-3L150.29-3Z" fill="#000000" data-fill-palette-color="secondary"></path></g></svg></g></svg></g></svg></g></svg></g><g transform="matrix(1,0,0,1,128.29844910235988,0)"><svg viewBox="0 0 138.92310179528025 177.35382920702207" height="177.35382920702207" width="138.92310179528025"><g><svg xmlns="http://www.w3.org/2000/svg" xmlns:xlink="http://www.w3.org/1999/xlink" version="1.1" x="0" y="0" viewBox="32.625 27.817999999999998 34.75 44.363" enable-background="new 0 0 100 100" xml:space="preserve" height="177.35382920702207" width="138.92310179528025" class="icon-icon-0" data-fill-palette-color="accent" id="icon-0"><path d="M65.875 35.443h-6.884c-0.72-4.319-4.472-7.625-8.991-7.625s-8.272 3.306-8.991 7.625h-6.884c-0.829 0-1.5 0.671-1.5 1.5v33.738c0 0.828 0.671 1.5 1.5 1.5h31.75c0.828 0 1.5-0.672 1.5-1.5V36.943C67.375 36.115 66.703 35.443 65.875 35.443zM50 30.818c2.858 0 5.26 1.972 5.932 4.625H44.068C44.74 32.79 47.141 30.818 50 30.818zM64.375 69.182h-28.75V38.443h28.75V69.182zM42.38 45.07c0.46 0 0.91-0.19 1.23-0.51 0.33-0.33 0.52-0.78 0.52-1.24s-0.19-0.91-0.52-1.24c-0.65-0.65-1.83-0.65-2.47 0-0.33 0.33-0.52 0.78-0.52 1.24s0.19 0.91 0.52 1.24C41.46 44.88 41.91 45.07 42.38 45.07zM57.63 45.07c0.45 0 0.9-0.19 1.229-0.51 0.33-0.33 0.521-0.78 0.521-1.24s-0.19-0.92-0.521-1.24c-0.649-0.65-1.819-0.65-2.47 0-0.33 0.32-0.51 0.77-0.51 1.24 0 0.46 0.18 0.91 0.51 1.24C56.71 44.88 57.17 45.07 57.63 45.07z" fill="#000000" data-fill-palette-color="accent"></path></svg></g></svg></g><g></g></svg></g><defs></defs></svg><rect width="298.9966435600164" height="247.2" fill="none" stroke="none" visibility="hidden"></rect></g></svg></g></svg>